{
  "accessors": [
    {
      "bufferView": 2,
      "componentType": 5126,
      "count": 3266,
      "max": [
        18.35118293762207,
        18.128866195678711,
        18.356891632080078
      ],
      "min": [
        -18.351184844970703,
        -17.49622917175293,
        -18.329206466674805
      ],
      "type": "VEC3"
    },
    {
      "bufferView": 2,
      "byteOffset": 39192,
      "componentType": 5126,
      "count": 3266,
      "max": [
        0.99938338994979858,
        1,
        0.99969214200973511
      ],
      "min": [
        -0.99938338994979858,
        -1,
        -0.98846441507339478
      ],
      "type": "VEC3"
    },
    {
      "bufferView": 3,
      "componentType": 5126,
      "count": 3266,
      "max": [
        1,
        0.96386051177978516,
        0.99079793691635132,
        1
      ],
      "min": [
        -0.99914669990539551,
        -0.99968671798706055,
        -0.98580139875411987,
        1
      ],
      "type": "VEC4"
    },
    {
      "bufferView": 1,
      "componentType": 5126,
      "count": 3266,
      "max": [
        0.87666398286819458,
        0.99132001399993896
      ],
      "min": [
        0.0086799999698996544,
        0.0086799999698996544
      ],
      "type": "VEC2"
    },
    {
      "bufferView": 0,
      "componentType": 5125,
      "count": 16056,
      "max": [
        3265
      ],
      "min": [
        0
      ],
      "type": "SCALAR"
    }
  ],
  "asset": {
    "extras": {
      "author": "Wafelek (https://sketchfab.com/wafel)",
      "license": "SKETCHFAB Standard (https://sketchfab.com/licenses)",
      "source": "https://sketchfab.com/models/3b49d020734e4375b52918c6270d8174",
      "title": "Camera drone"
    },
    "generator": "Sketchfab-3.41.2",
    "version": "2.0"
  },
  "bufferViews": [
    {
      "buffer": 0,
      "byteLength": 64224,
      "byteOffset": 0,
      "name": "floatBufferViews",
      "target": 34963
    },
    {
      "buffer": 0,
      "byteLength": 26128,
      "byteOffset": 64224,
      "byteStride": 8,
      "name": "floatBufferViews",
      "target": 34962
    },
    {
      "buffer": 0,
      "byteLength": 78384,
      "byteOffset": 90352,
      "byteStride": 12,
      "name": "floatBufferViews",
      "target": 34962
    },
    {
      "buffer": 0,
      "byteLength": 52256,
      "byteOffset": 168736,
      "byteStride": 16,
      "name": "floatBufferViews",
      "target": 34962
    }
  ],
  "buffers": [
    {
      "byteLength": 220992,
      "uri": "scene.bin"
    }
  ],
  "images": [
    {
      "uri": "textures/cameraDrone_mtl_baseColor.png"
    },
    {
      "uri": "textures/cameraDrone_mtl_metallicRoughness.png"
    },
    {
      "uri": "textures/cameraDrone_mtl_normal.png"
    }
  ],
  "materials": [
    {
      "doubleSided": true,
      "emissiveFactor": [
        0,
        0,
        0
      ],
      "name": "cameraDrone_mtl",
      "normalTexture": {
        "index": 2,
        "scale": 1,
        "texCoord": 0
      },
      "pbrMetallicRoughness": {
        "baseColorFactor": [
          1,
          1,
          1,
          1
        ],
        "baseColorTexture": {
          "index": 0,
          "texCoord": 0
        },
        "metallicFactor": 1,
        "metallicRoughnessTexture": {
          "index": 1,
          "texCoord": 0
        },
        "roughnessFactor": 0.10194359760000005
      }
    }
  ],
  "meshes": [
    {
      "name": "drone_LP_UV_cameraDrone_mtl_0",
      "primitives": [
        {
          "attributes": {
            "NORMAL": 1,
            "POSITION": 0,
            "TANGENT": 2,
            "TEXCOORD_0": 3
          },
          "indices": 4,
          "material": 0,
          "mode": 4
        }
      ]
    }
  ],
  "nodes": [
    {
      "children": [
        1
      ],
      "name": "RootNode (gltf orientation matrix)",
      "rotation": [
        -0.70710678118654746,
        -0,
        -0,
        0.70710678118654757
      ]
    },
    {
      "children": [
        2
      ],
      "name": "RootNode (model correction matrix)"
    },
    {
      "children": [
        3
      ],
      "matrix": [
        1,
        0,
        0,
        0,
        0,
        0,
        1,
        0,
        0,
        -1,
        0,
        0,
        0,
        0,
        0,
        1
      ],
      "name": "31990b48d2f8485dacf2d028494eaefe.fbx"
    },
    {
      "children": [
        4
      ],
      "name": "RootNode"
    },
    {
      "children": [
        5
      ],
      "matrix": [
        1,
        0,
        0,
        0,
        0,
        0.999999999999999,
        4.3711388286737922e-08,
        0,
        0,
        -4.3711388286737922e-08,
        0.999999999999999,
        0,
        -9.5367431640625e-07,
        0.013842582702636719,
        -0.31631851196289062,
        1
      ],
      "name": "drone_LP_UV"
    },
    {
      "children": [
        6
      ],
      "matrix": [
        1,
        0,
        0,
        0,
        0,
        6.123233995736766e-17,
        -1,
        0,
        -0,
        1,
        6.123233995736766e-17,
        0,
        9.5367431640625e-07,
        -0.013842582702636719,
        0.31631851196289062,
        1
      ],
      "name": ""
    },
    {
      "mesh": 0,
      "name": "drone_LP_UV_cameraDrone_mtl_0"
    }
  ],
  "samplers": [
    {
      "magFilter": 9729,
      "minFilter": 9987,
      "wrapS": 10497,
      "wrapT": 10497
    }
  ],
  "scene": 0,
  "scenes": [
    {
      "name": "OSG_Scene",
      "nodes": [
        0
      ]
    }
  ],
  "textures": [
    {
      "sampler": 0,
      "source": 0
    },
    {
      "sampler": 0,
      "source": 1
    },
    {
      "sampler": 0,
      "source": 2
    }
  ]
}

